<mxfile host="app.diagrams.net" modified="2024-04-09T06:29:46.679Z" agent="Mozilla/5.0 (Macintosh; Intel Mac OS X 10_15_7) AppleWebKit/605.1.15 (KHTML, like Gecko) Version/17.4.1 Safari/605.1.15" version="24.2.3" etag="OtW79f1Y43WRbrkeY3CL" type="github">
  <diagram name="第 1 页" id="S368zLuF-xDWdtJ9s5Y5">
    <mxGraphModel>
      <root>
        <mxCell id="0" />
        <mxCell id="1" parent="0" />
      </root>
    </mxGraphModel>
  </diagram>
</mxfile>
